<svg version="1.1" xmlns="http://www.w3.org/2000/svg" viewBox="-0.1 -0.1 8.1 5.1"><rect x="-0.1" y="-0.1" width="8.1" height="5.1" class="svg-background-rectangle" stroke="none" fill="white"></rect><g stroke="black" class="edges" stroke-width="0.01"><path d="M0.40499999999999997 0.23382685902179845L0.8099999999999999 0M0.40499999999999997 0.23382685902179845L0.40499999999999997 0.7014805770653952M0.40499999999999997 0.23382685902179845L0 0M0.40499999999999997 0.9353074360871936L0.8099999999999999 0.7014805770653952M0.40499999999999997 0.9353074360871936L0.40499999999999997 1.4029611541307905M0.40499999999999997 0.9353074360871936L0 0.7014805770653952M0.40499999999999997 1.636788013152589L0.8099999999999999 1.4029611541307905M0.40499999999999997 1.636788013152589L0.40499999999999997 2.104441731196186M0.40499999999999997 1.636788013152589L0 1.4029611541307905M0.40499999999999997 2.3382685902179845L0.8099999999999999 2.104441731196186M0.40499999999999997 2.3382685902179845L0.40499999999999997 2.805922308261581M0.40499999999999997 2.3382685902179845L0 2.104441731196186M0.40499999999999997 3.0397491672833796L0.8099999999999999 2.805922308261581M0.40499999999999997 3.0397491672833796L0.40499999999999997 3.507402885326976M0.40499999999999997 3.0397491672833796L0 2.805922308261581M0.40499999999999997 3.7412297443487743L0.8099999999999999 3.507402885326976M0.40499999999999997 3.7412297443487743L0.40499999999999997 4.208883462392371M0.40499999999999997 3.7412297443487743L0 3.507402885326976M1.0125 0.5845671475544961L1.4175 0.3507402885326976M1.0125 0.5845671475544961L1.0125 1.052220865598093M1.0125 0.5845671475544961L0.6074999999999999 0.3507402885326976M1.0125 1.2860477246198914L1.4175 1.052220865598093M1.0125 1.2860477246198914L1.0125 1.753701442663488M1.0125 1.2860477246198914L0.6074999999999999 1.052220865598093M1.0125 1.9875283016852865L1.4175 1.753701442663488M1.0125 1.9875283016852865L1.0125 2.455182019728883M1.0125 1.9875283016852865L0.6074999999999999 1.753701442663488M1.0125 2.689008878750682L1.4175 2.455182019728883M1.0125 2.689008878750682L1.0125 3.1566625967942787M1.0125 2.689008878750682L0.6074999999999999 2.455182019728883M1.0125 3.3904894558160765L1.4175 3.1566625967942783M1.0125 3.3904894558160765L1.0125 3.858143173859674M1.0125 3.3904894558160765L0.6074999999999999 3.1566625967942783M1.0125 4.0919700328814725L1.4175 3.858143173859674M1.0125 4.0919700328814725L1.0125 4.559623750925069M1.0125 4.0919700328814725L0.6074999999999999 3.858143173859674M1.6199999999999999 0.23382685902179845L2.025 0M1.6199999999999999 0.23382685902179845L1.6199999999999999 0.7014805770653952M1.6199999999999999 0.23382685902179845L1.2149999999999999 0M1.6199999999999999 0.9353074360871936L2.025 0.7014805770653952M1.6199999999999999 0.9353074360871936L1.6199999999999999 1.4029611541307905M1.6199999999999999 0.9353074360871936L1.2149999999999999 0.7014805770653952M1.6199999999999999 1.636788013152589L2.025 1.4029611541307905M1.6199999999999999 1.636788013152589L1.6199999999999999 2.104441731196186M1.6199999999999999 1.636788013152589L1.2149999999999999 1.4029611541307905M1.6199999999999999 2.3382685902179845L2.025 2.104441731196186M1.6199999999999999 2.3382685902179845L1.6199999999999999 2.805922308261581M1.6199999999999999 2.3382685902179845L1.2149999999999999 2.104441731196186M1.6199999999999999 3.0397491672833796L2.025 2.805922308261581M1.6199999999999999 3.0397491672833796L1.6199999999999999 3.507402885326976M1.6199999999999999 3.0397491672833796L1.2149999999999999 2.805922308261581M1.6199999999999999 3.7412297443487743L2.025 3.507402885326976M1.6199999999999999 3.7412297443487743L1.6199999999999999 4.208883462392371M1.6199999999999999 3.7412297443487743L1.2149999999999999 3.507402885326976M2.2275 0.5845671475544961L2.6325 0.3507402885326976M2.2275 0.5845671475544961L2.2275 1.052220865598093M2.2275 0.5845671475544961L1.8224999999999998 0.3507402885326976M2.2275 1.2860477246198914L2.6325 1.052220865598093M2.2275 1.2860477246198914L2.2275 1.753701442663488M2.2275 1.2860477246198914L1.8224999999999998 1.052220865598093M2.2275 1.9875283016852865L2.6325 1.753701442663488M2.2275 1.9875283016852865L2.2275 2.455182019728883M2.2275 1.9875283016852865L1.8224999999999998 1.753701442663488M2.2275 2.689008878750682L2.6325 2.455182019728883M2.2275 2.689008878750682L2.2275 3.1566625967942787M2.2275 2.689008878750682L1.8224999999999998 2.455182019728883M2.2275 3.3904894558160765L2.6325 3.1566625967942783M2.2275 3.3904894558160765L2.2275 3.858143173859674M2.2275 3.3904894558160765L1.8224999999999998 3.1566625967942783M2.2275 4.0919700328814725L2.6325 3.858143173859674M2.2275 4.0919700328814725L2.2275 4.559623750925069M2.2275 4.0919700328814725L1.8224999999999998 3.858143173859674M2.835 0.23382685902179845L3.2399999999999998 0M2.835 0.23382685902179845L2.835 0.7014805770653952M2.835 0.23382685902179845L2.4299999999999997 0M2.835 0.9353074360871936L3.2399999999999998 0.7014805770653952M2.835 0.9353074360871936L2.835 1.4029611541307905M2.835 0.9353074360871936L2.4299999999999997 0.7014805770653952M2.835 1.636788013152589L3.2399999999999998 1.4029611541307905M2.835 1.636788013152589L2.835 2.104441731196186M2.835 1.636788013152589L2.4299999999999997 1.4029611541307905M2.835 2.3382685902179845L3.2399999999999998 2.104441731196186M2.835 2.3382685902179845L2.835 2.805922308261581M2.835 2.3382685902179845L2.4299999999999997 2.104441731196186M2.835 3.0397491672833796L3.2399999999999998 2.805922308261581M2.835 3.0397491672833796L2.835 3.507402885326976M2.835 3.0397491672833796L2.4299999999999997 2.805922308261581M2.835 3.7412297443487743L3.2399999999999998 3.507402885326976M2.835 3.7412297443487743L2.835 4.208883462392371M2.835 3.7412297443487743L2.4299999999999997 3.507402885326976M3.4425 0.5845671475544961L3.8474999999999997 0.3507402885326976M3.4425 0.5845671475544961L3.4425 1.052220865598093M3.4425 0.5845671475544961L3.0374999999999996 0.3507402885326976M3.4425 1.2860477246198914L3.8474999999999997 1.052220865598093M3.4425 1.2860477246198914L3.4425 1.753701442663488M3.4425 1.2860477246198914L3.0374999999999996 1.052220865598093M3.4425 1.9875283016852865L3.8474999999999997 1.753701442663488M3.4425 1.9875283016852865L3.4425 2.455182019728883M3.4425 1.9875283016852865L3.0374999999999996 1.753701442663488M3.4425 2.689008878750682L3.8474999999999997 2.455182019728883M3.4425 2.689008878750682L3.4425 3.1566625967942787M3.4425 2.689008878750682L3.0374999999999996 2.455182019728883M3.4425 3.3904894558160765L3.8474999999999997 3.1566625967942783M3.4425 3.3904894558160765L3.4425 3.858143173859674M3.4425 3.3904894558160765L3.0374999999999996 3.1566625967942783M3.4425 4.0919700328814725L3.8474999999999997 3.858143173859674M3.4425 4.0919700328814725L3.4425 4.559623750925069M3.4425 4.0919700328814725L3.0374999999999996 3.858143173859674M4.05 0.23382685902179845L4.455 0M4.05 0.23382685902179845L4.05 0.7014805770653952M4.05 0.23382685902179845L3.6449999999999996 0M4.05 0.9353074360871936L4.455 0.7014805770653952M4.05 0.9353074360871936L4.05 1.4029611541307905M4.05 0.9353074360871936L3.6449999999999996 0.7014805770653952M4.05 1.636788013152589L4.455 1.4029611541307905M4.05 1.636788013152589L4.05 2.104441731196186M4.05 1.636788013152589L3.6449999999999996 1.4029611541307905M4.05 2.3382685902179845L4.455 2.104441731196186M4.05 2.3382685902179845L4.05 2.805922308261581M4.05 2.3382685902179845L3.6449999999999996 2.104441731196186M4.05 3.0397491672833796L4.455 2.805922308261581M4.05 3.0397491672833796L4.05 3.507402885326976M4.05 3.0397491672833796L3.6449999999999996 2.805922308261581M4.05 3.7412297443487743L4.455 3.507402885326976M4.05 3.7412297443487743L4.05 4.208883462392371M4.05 3.7412297443487743L3.6449999999999996 3.507402885326976M4.6575 0.5845671475544961L5.0625 0.3507402885326976M4.6575 0.5845671475544961L4.6575 1.052220865598093M4.6575 0.5845671475544961L4.2524999999999995 0.3507402885326976M4.6575 1.2860477246198914L5.0625 1.052220865598093M4.6575 1.2860477246198914L4.6575 1.753701442663488M4.6575 1.2860477246198914L4.2524999999999995 1.052220865598093M4.6575 1.9875283016852865L5.0625 1.753701442663488M4.6575 1.9875283016852865L4.6575 2.455182019728883M4.6575 1.9875283016852865L4.2524999999999995 1.753701442663488M4.6575 2.689008878750682L5.0625 2.455182019728883M4.6575 2.689008878750682L4.6575 3.1566625967942787M4.6575 2.689008878750682L4.2524999999999995 2.455182019728883M4.6575 3.3904894558160765L5.0625 3.1566625967942783M4.6575 3.3904894558160765L4.6575 3.858143173859674M4.6575 3.3904894558160765L4.2524999999999995 3.1566625967942783M4.6575 4.0919700328814725L5.0625 3.858143173859674M4.6575 4.0919700328814725L4.6575 4.559623750925069M4.6575 4.0919700328814725L4.2524999999999995 3.858143173859674M5.265 0.23382685902179845L5.67 0M5.265 0.23382685902179845L5.265 0.7014805770653952M5.265 0.23382685902179845L4.859999999999999 0M5.265 0.9353074360871936L5.67 0.7014805770653952M5.265 0.9353074360871936L5.265 1.4029611541307905M5.265 0.9353074360871936L4.859999999999999 0.7014805770653952M5.265 1.636788013152589L5.67 1.4029611541307905M5.265 1.636788013152589L5.265 2.104441731196186M5.265 1.636788013152589L4.859999999999999 1.4029611541307905M5.265 2.3382685902179845L5.67 2.104441731196186M5.265 2.3382685902179845L5.265 2.805922308261581M5.265 2.3382685902179845L4.859999999999999 2.104441731196186M5.265 3.0397491672833796L5.67 2.805922308261581M5.265 3.0397491672833796L5.265 3.507402885326976M5.265 3.0397491672833796L4.859999999999999 2.805922308261581M5.265 3.7412297443487743L5.67 3.507402885326976M5.265 3.7412297443487743L5.265 4.208883462392371M5.265 3.7412297443487743L4.859999999999999 3.507402885326976M5.8725 0.5845671475544961L6.2775 0.3507402885326976M5.8725 0.5845671475544961L5.8725 1.052220865598093M5.8725 0.5845671475544961L5.467499999999999 0.3507402885326976M5.8725 1.2860477246198914L6.2775 1.052220865598093M5.8725 1.2860477246198914L5.8725 1.753701442663488M5.8725 1.2860477246198914L5.467499999999999 1.052220865598093M5.8725 1.9875283016852865L6.2775 1.753701442663488M5.8725 1.9875283016852865L5.8725 2.455182019728883M5.8725 1.9875283016852865L5.467499999999999 1.753701442663488M5.8725 2.689008878750682L6.2775 2.455182019728883M5.8725 2.689008878750682L5.8725 3.1566625967942787M5.8725 2.689008878750682L5.467499999999999 2.455182019728883M5.8725 3.3904894558160765L6.2775 3.1566625967942783M5.8725 3.3904894558160765L5.8725 3.858143173859674M5.8725 3.3904894558160765L5.467499999999999 3.1566625967942783M5.8725 4.0919700328814725L6.2775 3.858143173859674M5.8725 4.0919700328814725L5.8725 4.559623750925069M5.8725 4.0919700328814725L5.467499999999999 3.858143173859674M6.4799999999999995 0.23382685902179845L6.885 0M6.4799999999999995 0.23382685902179845L6.4799999999999995 0.7014805770653952M6.4799999999999995 0.23382685902179845L6.074999999999999 0M6.4799999999999995 0.9353074360871936L6.885 0.7014805770653952M6.4799999999999995 0.9353074360871936L6.4799999999999995 1.4029611541307905M6.4799999999999995 0.9353074360871936L6.074999999999999 0.7014805770653952M6.4799999999999995 1.636788013152589L6.885 1.4029611541307905M6.4799999999999995 1.636788013152589L6.4799999999999995 2.104441731196186M6.4799999999999995 1.636788013152589L6.074999999999999 1.4029611541307905M6.4799999999999995 2.3382685902179845L6.885 2.104441731196186M6.4799999999999995 2.3382685902179845L6.4799999999999995 2.805922308261581M6.4799999999999995 2.3382685902179845L6.074999999999999 2.104441731196186M6.4799999999999995 3.0397491672833796L6.885 2.805922308261581M6.4799999999999995 3.0397491672833796L6.4799999999999995 3.507402885326976M6.4799999999999995 3.0397491672833796L6.074999999999999 2.805922308261581M6.4799999999999995 3.7412297443487743L6.885 3.507402885326976M6.4799999999999995 3.7412297443487743L6.4799999999999995 4.208883462392371M6.4799999999999995 3.7412297443487743L6.074999999999999 3.507402885326976M7.0874999999999995 0.5845671475544961L7.4925 0.3507402885326976M7.0874999999999995 0.5845671475544961L7.0874999999999995 1.052220865598093M7.0874999999999995 0.5845671475544961L6.682499999999999 0.3507402885326976M7.0874999999999995 1.2860477246198914L7.4925 1.052220865598093M7.0874999999999995 1.2860477246198914L7.0874999999999995 1.753701442663488M7.0874999999999995 1.2860477246198914L6.682499999999999 1.052220865598093M7.0874999999999995 1.9875283016852865L7.4925 1.753701442663488M7.0874999999999995 1.9875283016852865L7.0874999999999995 2.455182019728883M7.0874999999999995 1.9875283016852865L6.682499999999999 1.753701442663488M7.0874999999999995 2.689008878750682L7.4925 2.455182019728883M7.0874999999999995 2.689008878750682L7.0874999999999995 3.1566625967942787M7.0874999999999995 2.689008878750682L6.682499999999999 2.455182019728883M7.0874999999999995 3.3904894558160765L7.4925 3.1566625967942783M7.0874999999999995 3.3904894558160765L7.0874999999999995 3.858143173859674M7.0874999999999995 3.3904894558160765L6.682499999999999 3.1566625967942783M7.0874999999999995 4.0919700328814725L7.4925 3.858143173859674M7.0874999999999995 4.0919700328814725L7.0874999999999995 4.559623750925069M7.0874999999999995 4.0919700328814725L6.682499999999999 3.858143173859674" class="valley" stroke="blue"></path><path d="M0.40499999999999997 0.23382685902179845L0.40499999999999997 0M0.6074999999999999 0.3507402885326976L0.40499999999999997 0.7014805770653952M0.40499999999999997 0.23382685902179845L0.6074999999999999 0.3507402885326976M0.40499999999999997 0.23382685902179845L0.20249999999999999 0.3507402885326976M0.40499999999999997 0.9353074360871936L0.40499999999999997 0.7014805770653952M0.40499999999999997 0.7014805770653952L0.8099999999999999 0.7014805770653952M0.8099999999999999 0.7014805770653952L0.6074999999999999 1.052220865598093M0.6074999999999999 1.052220865598093L0.40499999999999997 1.4029611541307905M0.40499999999999997 0.9353074360871936L0.6074999999999999 1.052220865598093M0.40499999999999997 0.9353074360871936L0.20249999999999999 1.052220865598093M0.40499999999999997 1.636788013152589L0.40499999999999997 1.4029611541307905M0.40499999999999997 1.4029611541307905L0.8099999999999999 1.4029611541307905M0.8099999999999999 1.4029611541307905L0.6074999999999999 1.753701442663488M0.6074999999999999 1.753701442663488L0.40499999999999997 2.104441731196186M0.40499999999999997 1.636788013152589L0.6074999999999999 1.753701442663488M0.40499999999999997 1.636788013152589L0.20249999999999999 1.753701442663488M0.40499999999999997 2.3382685902179845L0.40499999999999997 2.104441731196186M0.40499999999999997 2.104441731196186L0.8099999999999999 2.104441731196186M0.8099999999999999 2.104441731196186L0.6074999999999999 2.455182019728883M0.6074999999999999 2.455182019728883L0.40499999999999997 2.805922308261581M0.40499999999999997 2.3382685902179845L0.6074999999999999 2.455182019728883M0.40499999999999997 2.3382685902179845L0.20249999999999999 2.455182019728883M0.40499999999999997 3.0397491672833796L0.40499999999999997 2.805922308261581M0.40499999999999997 2.805922308261581L0.8099999999999999 2.805922308261581M0.8099999999999999 2.805922308261581L0.6074999999999999 3.1566625967942783M0.6074999999999999 3.1566625967942783L0.40499999999999997 3.507402885326976M0.40499999999999997 3.0397491672833796L0.6074999999999999 3.1566625967942783M0.40499999999999997 3.0397491672833796L0.20249999999999999 3.1566625967942783M0.40499999999999997 3.7412297443487743L0.40499999999999997 3.507402885326976M0.40499999999999997 3.507402885326976L0.8099999999999999 3.507402885326976M0.8099999999999999 3.507402885326976L0.6074999999999999 3.858143173859674M0.40499999999999997 3.7412297443487743L0.6074999999999999 3.858143173859674M0.40499999999999997 3.7412297443487743L0.20249999999999999 3.858143173859674M1.0125 0.5845671475544961L1.0125 0.3507402885326976M1.4175 0.3507402885326976L1.2149999999999999 0.7014805770653952M1.2149999999999999 0.7014805770653952L1.0125 1.052220865598093M1.0125 1.052220865598093L0.8099999999999999 0.7014805770653952M0.8099999999999999 0.7014805770653952L0.6074999999999999 0.3507402885326976M1.0125 0.5845671475544961L1.2149999999999999 0.7014805770653952M1.0125 0.5845671475544961L0.8099999999999999 0.7014805770653952M1.0125 1.2860477246198914L1.0125 1.052220865598093M1.0125 1.052220865598093L1.4175 1.052220865598093M1.4175 1.052220865598093L1.2149999999999999 1.4029611541307905M1.2149999999999999 1.4029611541307905L1.0125 1.753701442663488M1.0125 1.753701442663488L0.8099999999999999 1.4029611541307905M0.8099999999999999 1.4029611541307905L0.6074999999999999 1.052220865598093M0.6074999999999999 1.052220865598093L1.0125 1.052220865598093M1.0125 1.2860477246198914L1.2149999999999999 1.4029611541307905M1.0125 1.2860477246198914L0.8099999999999999 1.4029611541307905M1.0125 1.9875283016852865L1.0125 1.753701442663488M1.0125 1.753701442663488L1.4175 1.753701442663488M1.4175 1.753701442663488L1.2149999999999999 2.104441731196186M1.2149999999999999 2.104441731196186L1.0125 2.455182019728883M1.0125 2.455182019728883L0.8099999999999999 2.104441731196186M0.8099999999999999 2.104441731196186L0.6074999999999999 1.753701442663488M0.6074999999999999 1.753701442663488L1.0125 1.753701442663488M1.0125 1.9875283016852865L1.2149999999999999 2.104441731196186M1.0125 1.9875283016852865L0.8099999999999999 2.104441731196186M1.0125 2.689008878750682L1.0125 2.455182019728883M1.0125 2.455182019728883L1.4175 2.455182019728883M1.4175 2.455182019728883L1.2149999999999999 2.805922308261581M1.2149999999999999 2.805922308261581L1.0125 3.1566625967942787M1.0125 3.1566625967942787L0.8099999999999999 2.805922308261581M0.8099999999999999 2.805922308261581L0.6074999999999999 2.455182019728883M0.6074999999999999 2.455182019728883L1.0125 2.455182019728883M1.0125 2.689008878750682L1.2149999999999999 2.805922308261581M1.0125 2.689008878750682L0.8099999999999999 2.805922308261581M1.0125 3.3904894558160765L1.0125 3.1566625967942787M1.0125 3.1566625967942787L1.4175 3.1566625967942783M1.4175 3.1566625967942783L1.2149999999999999 3.507402885326976M1.2149999999999999 3.507402885326976L1.0125 3.858143173859674M1.0125 3.858143173859674L0.8099999999999999 3.507402885326976M0.8099999999999999 3.507402885326976L0.6074999999999999 3.1566625967942783M0.6074999999999999 3.1566625967942783L1.0125 3.1566625967942787M1.0125 3.3904894558160765L1.2149999999999999 3.507402885326976M1.0125 3.3904894558160765L0.8099999999999999 3.507402885326976M1.0125 4.0919700328814725L1.0125 3.858143173859674M1.0125 3.858143173859674L1.4175 3.858143173859674M0.6074999999999999 3.858143173859674L1.0125 3.858143173859674M1.0125 4.0919700328814725L1.2149999999999999 4.208883462392372M1.0125 4.0919700328814725L0.8099999999999999 4.208883462392372M1.6199999999999999 0.23382685902179845L1.6199999999999999 0M1.8224999999999998 0.3507402885326976L1.6199999999999999 0.7014805770653952M1.6199999999999999 0.7014805770653952L1.4175 0.3507402885326976M1.6199999999999999 0.23382685902179845L1.8224999999999998 0.3507402885326976M1.6199999999999999 0.23382685902179845L1.4175 0.3507402885326976M1.6199999999999999 0.9353074360871936L1.6199999999999999 0.7014805770653952M1.6199999999999999 0.7014805770653952L2.025 0.7014805770653952M2.025 0.7014805770653952L1.8224999999999998 1.052220865598093M1.8224999999999998 1.052220865598093L1.6199999999999999 1.4029611541307905M1.6199999999999999 1.4029611541307905L1.4175 1.052220865598093M1.4175 1.052220865598093L1.2149999999999999 0.7014805770653952M1.2149999999999999 0.7014805770653952L1.6199999999999999 0.7014805770653952M1.6199999999999999 0.9353074360871936L1.8224999999999998 1.052220865598093M1.6199999999999999 0.9353074360871936L1.4175 1.052220865598093M1.6199999999999999 1.636788013152589L1.6199999999999999 1.4029611541307905M1.6199999999999999 1.4029611541307905L2.025 1.4029611541307905M2.025 1.4029611541307905L1.8224999999999998 1.753701442663488M1.8224999999999998 1.753701442663488L1.6199999999999999 2.104441731196186M1.6199999999999999 2.104441731196186L1.4175 1.753701442663488M1.4175 1.753701442663488L1.2149999999999999 1.4029611541307905M1.2149999999999999 1.4029611541307905L1.6199999999999999 1.4029611541307905M1.6199999999999999 1.636788013152589L1.8224999999999998 1.753701442663488M1.6199999999999999 1.636788013152589L1.4175 1.753701442663488M1.6199999999999999 2.3382685902179845L1.6199999999999999 2.104441731196186M1.6199999999999999 2.104441731196186L2.025 2.104441731196186M2.025 2.104441731196186L1.8224999999999998 2.455182019728883M1.8224999999999998 2.455182019728883L1.6199999999999999 2.805922308261581M1.6199999999999999 2.805922308261581L1.4175 2.455182019728883M1.4175 2.455182019728883L1.2149999999999999 2.104441731196186M1.2149999999999999 2.104441731196186L1.6199999999999999 2.104441731196186M1.6199999999999999 2.3382685902179845L1.8224999999999998 2.455182019728883M1.6199999999999999 2.3382685902179845L1.4175 2.455182019728883M1.6199999999999999 3.0397491672833796L1.6199999999999999 2.805922308261581M1.6199999999999999 2.805922308261581L2.025 2.805922308261581M2.025 2.805922308261581L1.8224999999999998 3.1566625967942783M1.8224999999999998 3.1566625967942783L1.6199999999999999 3.507402885326976M1.6199999999999999 3.507402885326976L1.4175 3.1566625967942783M1.4175 3.1566625967942783L1.2149999999999999 2.805922308261581M1.2149999999999999 2.805922308261581L1.6199999999999999 2.805922308261581M1.6199999999999999 3.0397491672833796L1.8224999999999998 3.1566625967942783M1.6199999999999999 3.0397491672833796L1.4175 3.1566625967942783M1.6199999999999999 3.7412297443487743L1.6199999999999999 3.507402885326976M1.6199999999999999 3.507402885326976L2.025 3.507402885326976M2.025 3.507402885326976L1.8224999999999998 3.858143173859674M1.4175 3.858143173859674L1.2149999999999999 3.507402885326976M1.2149999999999999 3.507402885326976L1.6199999999999999 3.507402885326976M1.6199999999999999 3.7412297443487743L1.8224999999999998 3.858143173859674M1.6199999999999999 3.7412297443487743L1.4175 3.858143173859674M2.2275 0.5845671475544961L2.2275 0.3507402885326976M2.6325 0.3507402885326976L2.4299999999999997 0.7014805770653952M2.4299999999999997 0.7014805770653952L2.2275 1.052220865598093M2.2275 1.052220865598093L2.025 0.7014805770653952M2.025 0.7014805770653952L1.8224999999999998 0.3507402885326976M2.2275 0.5845671475544961L2.4299999999999997 0.7014805770653952M2.2275 0.5845671475544961L2.025 0.7014805770653952M2.2275 1.2860477246198914L2.2275 1.052220865598093M2.2275 1.052220865598093L2.6325 1.052220865598093M2.6325 1.052220865598093L2.4299999999999997 1.4029611541307905M2.4299999999999997 1.4029611541307905L2.2275 1.753701442663488M2.2275 1.753701442663488L2.025 1.4029611541307905M2.025 1.4029611541307905L1.8224999999999998 1.052220865598093M1.8224999999999998 1.052220865598093L2.2275 1.052220865598093M2.2275 1.2860477246198914L2.4299999999999997 1.4029611541307905M2.2275 1.2860477246198914L2.025 1.4029611541307905M2.2275 1.9875283016852865L2.2275 1.753701442663488M2.2275 1.753701442663488L2.6325 1.753701442663488M2.6325 1.753701442663488L2.4299999999999997 2.104441731196186M2.4299999999999997 2.104441731196186L2.2275 2.455182019728883M2.2275 2.455182019728883L2.025 2.104441731196186M2.025 2.104441731196186L1.8224999999999998 1.753701442663488M1.8224999999999998 1.753701442663488L2.2275 1.753701442663488M2.2275 1.9875283016852865L2.4299999999999997 2.104441731196186M2.2275 1.9875283016852865L2.025 2.104441731196186M2.2275 2.689008878750682L2.2275 2.455182019728883M2.2275 2.455182019728883L2.6325 2.455182019728883M2.6325 2.455182019728883L2.4299999999999997 2.805922308261581M2.4299999999999997 2.805922308261581L2.2275 3.1566625967942787M2.2275 3.1566625967942787L2.025 2.805922308261581M2.025 2.805922308261581L1.8224999999999998 2.455182019728883M1.8224999999999998 2.455182019728883L2.2275 2.455182019728883M2.2275 2.689008878750682L2.4299999999999997 2.805922308261581M2.2275 2.689008878750682L2.025 2.805922308261581M2.2275 3.3904894558160765L2.2275 3.1566625967942787M2.2275 3.1566625967942787L2.6325 3.1566625967942783M2.6325 3.1566625967942783L2.4299999999999997 3.507402885326976M2.4299999999999997 3.507402885326976L2.2275 3.858143173859674M2.2275 3.858143173859674L2.025 3.507402885326976M2.025 3.507402885326976L1.8224999999999998 3.1566625967942783M1.8224999999999998 3.1566625967942783L2.2275 3.1566625967942787M2.2275 3.3904894558160765L2.4299999999999997 3.507402885326976M2.2275 3.3904894558160765L2.025 3.507402885326976M2.2275 4.0919700328814725L2.2275 3.858143173859674M2.2275 3.858143173859674L2.6325 3.858143173859674M1.8224999999999998 3.858143173859674L2.2275 3.858143173859674M2.2275 4.0919700328814725L2.4299999999999997 4.208883462392372M2.2275 4.0919700328814725L2.025 4.208883462392372M2.835 0.23382685902179845L2.835 0M3.0374999999999996 0.3507402885326976L2.835 0.7014805770653952M2.835 0.7014805770653952L2.6325 0.3507402885326976M2.835 0.23382685902179845L3.0374999999999996 0.3507402885326976M2.835 0.23382685902179845L2.6325 0.3507402885326976M2.835 0.9353074360871936L2.835 0.7014805770653952M2.835 0.7014805770653952L3.2399999999999998 0.7014805770653952M3.2399999999999998 0.7014805770653952L3.0374999999999996 1.052220865598093M3.0374999999999996 1.052220865598093L2.835 1.4029611541307905M2.835 1.4029611541307905L2.6325 1.052220865598093M2.6325 1.052220865598093L2.4299999999999997 0.7014805770653952M2.4299999999999997 0.7014805770653952L2.835 0.7014805770653952M2.835 0.9353074360871936L3.0374999999999996 1.052220865598093M2.835 0.9353074360871936L2.6325 1.052220865598093M2.835 1.636788013152589L2.835 1.4029611541307905M2.835 1.4029611541307905L3.2399999999999998 1.4029611541307905M3.2399999999999998 1.4029611541307905L3.0374999999999996 1.753701442663488M3.0374999999999996 1.753701442663488L2.835 2.104441731196186M2.835 2.104441731196186L2.6325 1.753701442663488M2.6325 1.753701442663488L2.4299999999999997 1.4029611541307905M2.4299999999999997 1.4029611541307905L2.835 1.4029611541307905M2.835 1.636788013152589L3.0374999999999996 1.753701442663488M2.835 1.636788013152589L2.6325 1.753701442663488M2.835 2.3382685902179845L2.835 2.104441731196186M2.835 2.104441731196186L3.2399999999999998 2.104441731196186M3.2399999999999998 2.104441731196186L3.0374999999999996 2.455182019728883M3.0374999999999996 2.455182019728883L2.835 2.805922308261581M2.835 2.805922308261581L2.6325 2.455182019728883M2.6325 2.455182019728883L2.4299999999999997 2.104441731196186M2.4299999999999997 2.104441731196186L2.835 2.104441731196186M2.835 2.3382685902179845L3.0374999999999996 2.455182019728883M2.835 2.3382685902179845L2.6325 2.455182019728883M2.835 3.0397491672833796L2.835 2.805922308261581M2.835 2.805922308261581L3.2399999999999998 2.805922308261581M3.2399999999999998 2.805922308261581L3.0374999999999996 3.1566625967942783M3.0374999999999996 3.1566625967942783L2.835 3.507402885326976M2.835 3.507402885326976L2.6325 3.1566625967942783M2.6325 3.1566625967942783L2.4299999999999997 2.805922308261581M2.4299999999999997 2.805922308261581L2.835 2.805922308261581M2.835 3.0397491672833796L3.0374999999999996 3.1566625967942783M2.835 3.0397491672833796L2.6325 3.1566625967942783M2.835 3.7412297443487743L2.835 3.507402885326976M2.835 3.507402885326976L3.2399999999999998 3.507402885326976M3.2399999999999998 3.507402885326976L3.0374999999999996 3.858143173859674M2.6325 3.858143173859674L2.4299999999999997 3.507402885326976M2.4299999999999997 3.507402885326976L2.835 3.507402885326976M2.835 3.7412297443487743L3.0374999999999996 3.858143173859674M2.835 3.7412297443487743L2.6325 3.858143173859674M3.4425 0.5845671475544961L3.4425 0.3507402885326976M3.8474999999999997 0.3507402885326976L3.6449999999999996 0.7014805770653952M3.6449999999999996 0.7014805770653952L3.4425 1.052220865598093M3.4425 1.052220865598093L3.2399999999999998 0.7014805770653952M3.2399999999999998 0.7014805770653952L3.0374999999999996 0.3507402885326976M3.4425 0.5845671475544961L3.6449999999999996 0.7014805770653952M3.4425 0.5845671475544961L3.2399999999999998 0.7014805770653952M3.4425 1.2860477246198914L3.4425 1.052220865598093M3.4425 1.052220865598093L3.8474999999999997 1.052220865598093M3.8474999999999997 1.052220865598093L3.6449999999999996 1.4029611541307905M3.6449999999999996 1.4029611541307905L3.4425 1.753701442663488M3.4425 1.753701442663488L3.2399999999999998 1.4029611541307905M3.2399999999999998 1.4029611541307905L3.0374999999999996 1.052220865598093M3.0374999999999996 1.052220865598093L3.4425 1.052220865598093M3.4425 1.2860477246198914L3.6449999999999996 1.4029611541307905M3.4425 1.2860477246198914L3.2399999999999998 1.4029611541307905M3.4425 1.9875283016852865L3.4425 1.753701442663488M3.4425 1.753701442663488L3.8474999999999997 1.753701442663488M3.8474999999999997 1.753701442663488L3.6449999999999996 2.104441731196186M3.6449999999999996 2.104441731196186L3.4425 2.455182019728883M3.4425 2.455182019728883L3.2399999999999998 2.104441731196186M3.2399999999999998 2.104441731196186L3.0374999999999996 1.753701442663488M3.0374999999999996 1.753701442663488L3.4425 1.753701442663488M3.4425 1.9875283016852865L3.6449999999999996 2.104441731196186M3.4425 1.9875283016852865L3.2399999999999998 2.104441731196186M3.4425 2.689008878750682L3.4425 2.455182019728883M3.4425 2.455182019728883L3.8474999999999997 2.455182019728883M3.8474999999999997 2.455182019728883L3.6449999999999996 2.805922308261581M3.6449999999999996 2.805922308261581L3.4425 3.1566625967942787M3.4425 3.1566625967942787L3.2399999999999998 2.805922308261581M3.2399999999999998 2.805922308261581L3.0374999999999996 2.455182019728883M3.0374999999999996 2.455182019728883L3.4425 2.455182019728883M3.4425 2.689008878750682L3.6449999999999996 2.805922308261581M3.4425 2.689008878750682L3.2399999999999998 2.805922308261581M3.4425 3.3904894558160765L3.4425 3.1566625967942787M3.4425 3.1566625967942787L3.8474999999999997 3.1566625967942783M3.8474999999999997 3.1566625967942783L3.6449999999999996 3.507402885326976M3.6449999999999996 3.507402885326976L3.4425 3.858143173859674M3.4425 3.858143173859674L3.2399999999999998 3.507402885326976M3.2399999999999998 3.507402885326976L3.0374999999999996 3.1566625967942783M3.0374999999999996 3.1566625967942783L3.4425 3.1566625967942787M3.4425 3.3904894558160765L3.6449999999999996 3.507402885326976M3.4425 3.3904894558160765L3.2399999999999998 3.507402885326976M3.4425 4.0919700328814725L3.4425 3.858143173859674M3.4425 3.858143173859674L3.8474999999999997 3.858143173859674M3.0374999999999996 3.858143173859674L3.4425 3.858143173859674M3.4425 4.0919700328814725L3.6449999999999996 4.208883462392372M3.4425 4.0919700328814725L3.2399999999999998 4.208883462392372M4.05 0.23382685902179845L4.05 0M4.2524999999999995 0.3507402885326976L4.05 0.7014805770653952M4.05 0.7014805770653952L3.8474999999999997 0.3507402885326976M4.05 0.23382685902179845L4.2524999999999995 0.3507402885326976M4.05 0.23382685902179845L3.8474999999999997 0.3507402885326976M4.05 0.9353074360871936L4.05 0.7014805770653952M4.05 0.7014805770653952L4.455 0.7014805770653952M4.455 0.7014805770653952L4.2524999999999995 1.052220865598093M4.2524999999999995 1.052220865598093L4.05 1.4029611541307905M4.05 1.4029611541307905L3.8474999999999997 1.052220865598093M3.8474999999999997 1.052220865598093L3.6449999999999996 0.7014805770653952M3.6449999999999996 0.7014805770653952L4.05 0.7014805770653952M4.05 0.9353074360871936L4.2524999999999995 1.052220865598093M4.05 0.9353074360871936L3.8474999999999997 1.052220865598093M4.05 1.636788013152589L4.05 1.4029611541307905M4.05 1.4029611541307905L4.455 1.4029611541307905M4.455 1.4029611541307905L4.2524999999999995 1.753701442663488M4.2524999999999995 1.753701442663488L4.05 2.104441731196186M4.05 2.104441731196186L3.8474999999999997 1.753701442663488M3.8474999999999997 1.753701442663488L3.6449999999999996 1.4029611541307905M3.6449999999999996 1.4029611541307905L4.05 1.4029611541307905M4.05 1.636788013152589L4.2524999999999995 1.753701442663488M4.05 1.636788013152589L3.8474999999999997 1.753701442663488M4.05 2.3382685902179845L4.05 2.104441731196186M4.05 2.104441731196186L4.455 2.104441731196186M4.455 2.104441731196186L4.2524999999999995 2.455182019728883M4.2524999999999995 2.455182019728883L4.05 2.805922308261581M4.05 2.805922308261581L3.8474999999999997 2.455182019728883M3.8474999999999997 2.455182019728883L3.6449999999999996 2.104441731196186M3.6449999999999996 2.104441731196186L4.05 2.104441731196186M4.05 2.3382685902179845L4.2524999999999995 2.455182019728883M4.05 2.3382685902179845L3.8474999999999997 2.455182019728883M4.05 3.0397491672833796L4.05 2.805922308261581M4.05 2.805922308261581L4.455 2.805922308261581M4.455 2.805922308261581L4.2524999999999995 3.1566625967942783M4.2524999999999995 3.1566625967942783L4.05 3.507402885326976M4.05 3.507402885326976L3.8474999999999997 3.1566625967942783M3.8474999999999997 3.1566625967942783L3.6449999999999996 2.805922308261581M3.6449999999999996 2.805922308261581L4.05 2.805922308261581M4.05 3.0397491672833796L4.2524999999999995 3.1566625967942783M4.05 3.0397491672833796L3.8474999999999997 3.1566625967942783M4.05 3.7412297443487743L4.05 3.507402885326976M4.05 3.507402885326976L4.455 3.507402885326976M4.455 3.507402885326976L4.2524999999999995 3.858143173859674M3.8474999999999997 3.858143173859674L3.6449999999999996 3.507402885326976M3.6449999999999996 3.507402885326976L4.05 3.507402885326976M4.05 3.7412297443487743L4.2524999999999995 3.858143173859674M4.05 3.7412297443487743L3.8474999999999997 3.858143173859674M4.6575 0.5845671475544961L4.6575 0.3507402885326976M5.0625 0.3507402885326976L4.859999999999999 0.7014805770653952M4.859999999999999 0.7014805770653952L4.6575 1.052220865598093M4.6575 1.052220865598093L4.455 0.7014805770653952M4.455 0.7014805770653952L4.2524999999999995 0.3507402885326976M4.6575 0.5845671475544961L4.859999999999999 0.7014805770653952M4.6575 0.5845671475544961L4.455 0.7014805770653952M4.6575 1.2860477246198914L4.6575 1.052220865598093M4.6575 1.052220865598093L5.0625 1.052220865598093M5.0625 1.052220865598093L4.859999999999999 1.4029611541307905M4.859999999999999 1.4029611541307905L4.6575 1.753701442663488M4.6575 1.753701442663488L4.455 1.4029611541307905M4.455 1.4029611541307905L4.2524999999999995 1.052220865598093M4.2524999999999995 1.052220865598093L4.6575 1.052220865598093M4.6575 1.2860477246198914L4.859999999999999 1.4029611541307905M4.6575 1.2860477246198914L4.455 1.4029611541307905M4.6575 1.9875283016852865L4.6575 1.753701442663488M4.6575 1.753701442663488L5.0625 1.753701442663488M5.0625 1.753701442663488L4.859999999999999 2.104441731196186M4.859999999999999 2.104441731196186L4.6575 2.455182019728883M4.6575 2.455182019728883L4.455 2.104441731196186M4.455 2.104441731196186L4.2524999999999995 1.753701442663488M4.2524999999999995 1.753701442663488L4.6575 1.753701442663488M4.6575 1.9875283016852865L4.859999999999999 2.104441731196186M4.6575 1.9875283016852865L4.455 2.104441731196186M4.6575 2.689008878750682L4.6575 2.455182019728883M4.6575 2.455182019728883L5.0625 2.455182019728883M5.0625 2.455182019728883L4.859999999999999 2.805922308261581M4.859999999999999 2.805922308261581L4.6575 3.1566625967942787M4.6575 3.1566625967942787L4.455 2.805922308261581M4.455 2.805922308261581L4.2524999999999995 2.455182019728883M4.2524999999999995 2.455182019728883L4.6575 2.455182019728883M4.6575 2.689008878750682L4.859999999999999 2.805922308261581M4.6575 2.689008878750682L4.455 2.805922308261581M4.6575 3.3904894558160765L4.6575 3.1566625967942787M4.6575 3.1566625967942787L5.0625 3.1566625967942783M5.0625 3.1566625967942783L4.859999999999999 3.507402885326976M4.859999999999999 3.507402885326976L4.6575 3.858143173859674M4.6575 3.858143173859674L4.455 3.507402885326976M4.455 3.507402885326976L4.2524999999999995 3.1566625967942783M4.2524999999999995 3.1566625967942783L4.6575 3.1566625967942787M4.6575 3.3904894558160765L4.859999999999999 3.507402885326976M4.6575 3.3904894558160765L4.455 3.507402885326976M4.6575 4.0919700328814725L4.6575 3.858143173859674M4.6575 3.858143173859674L5.0625 3.858143173859674M4.2524999999999995 3.858143173859674L4.6575 3.858143173859674M4.6575 4.0919700328814725L4.859999999999999 4.208883462392372M4.6575 4.0919700328814725L4.455 4.208883462392372M5.265 0.23382685902179845L5.265 0M5.467499999999999 0.3507402885326976L5.265 0.7014805770653952M5.265 0.7014805770653952L5.0625 0.3507402885326976M5.265 0.23382685902179845L5.467499999999999 0.3507402885326976M5.265 0.23382685902179845L5.0625 0.3507402885326976M5.265 0.9353074360871936L5.265 0.7014805770653952M5.265 0.7014805770653952L5.67 0.7014805770653952M5.67 0.7014805770653952L5.467499999999999 1.052220865598093M5.467499999999999 1.052220865598093L5.265 1.4029611541307905M5.265 1.4029611541307905L5.0625 1.052220865598093M5.0625 1.052220865598093L4.859999999999999 0.7014805770653952M4.859999999999999 0.7014805770653952L5.265 0.7014805770653952M5.265 0.9353074360871936L5.467499999999999 1.052220865598093M5.265 0.9353074360871936L5.0625 1.052220865598093M5.265 1.636788013152589L5.265 1.4029611541307905M5.265 1.4029611541307905L5.67 1.4029611541307905M5.67 1.4029611541307905L5.467499999999999 1.753701442663488M5.467499999999999 1.753701442663488L5.265 2.104441731196186M5.265 2.104441731196186L5.0625 1.753701442663488M5.0625 1.753701442663488L4.859999999999999 1.4029611541307905M4.859999999999999 1.4029611541307905L5.265 1.4029611541307905M5.265 1.636788013152589L5.467499999999999 1.753701442663488M5.265 1.636788013152589L5.0625 1.753701442663488M5.265 2.3382685902179845L5.265 2.104441731196186M5.265 2.104441731196186L5.67 2.104441731196186M5.67 2.104441731196186L5.467499999999999 2.455182019728883M5.467499999999999 2.455182019728883L5.265 2.805922308261581M5.265 2.805922308261581L5.0625 2.455182019728883M5.0625 2.455182019728883L4.859999999999999 2.104441731196186M4.859999999999999 2.104441731196186L5.265 2.104441731196186M5.265 2.3382685902179845L5.467499999999999 2.455182019728883M5.265 2.3382685902179845L5.0625 2.455182019728883M5.265 3.0397491672833796L5.265 2.805922308261581M5.265 2.805922308261581L5.67 2.805922308261581M5.67 2.805922308261581L5.467499999999999 3.1566625967942783M5.467499999999999 3.1566625967942783L5.265 3.507402885326976M5.265 3.507402885326976L5.0625 3.1566625967942783M5.0625 3.1566625967942783L4.859999999999999 2.805922308261581M4.859999999999999 2.805922308261581L5.265 2.805922308261581M5.265 3.0397491672833796L5.467499999999999 3.1566625967942783M5.265 3.0397491672833796L5.0625 3.1566625967942783M5.265 3.7412297443487743L5.265 3.507402885326976M5.265 3.507402885326976L5.67 3.507402885326976M5.67 3.507402885326976L5.467499999999999 3.858143173859674M5.0625 3.858143173859674L4.859999999999999 3.507402885326976M4.859999999999999 3.507402885326976L5.265 3.507402885326976M5.265 3.7412297443487743L5.467499999999999 3.858143173859674M5.265 3.7412297443487743L5.0625 3.858143173859674M5.8725 0.5845671475544961L5.8725 0.3507402885326976M6.2775 0.3507402885326976L6.074999999999999 0.7014805770653952M6.074999999999999 0.7014805770653952L5.8725 1.052220865598093M5.8725 1.052220865598093L5.67 0.7014805770653952M5.67 0.7014805770653952L5.467499999999999 0.3507402885326976M5.8725 0.5845671475544961L6.074999999999999 0.7014805770653952M5.8725 0.5845671475544961L5.67 0.7014805770653952M5.8725 1.2860477246198914L5.8725 1.052220865598093M5.8725 1.052220865598093L6.2775 1.052220865598093M6.2775 1.052220865598093L6.074999999999999 1.4029611541307905M6.074999999999999 1.4029611541307905L5.8725 1.753701442663488M5.8725 1.753701442663488L5.67 1.4029611541307905M5.67 1.4029611541307905L5.467499999999999 1.052220865598093M5.467499999999999 1.052220865598093L5.8725 1.052220865598093M5.8725 1.2860477246198914L6.074999999999999 1.4029611541307905M5.8725 1.2860477246198914L5.67 1.4029611541307905M5.8725 1.9875283016852865L5.8725 1.753701442663488M5.8725 1.753701442663488L6.2775 1.753701442663488M6.2775 1.753701442663488L6.074999999999999 2.104441731196186M6.074999999999999 2.104441731196186L5.8725 2.455182019728883M5.8725 2.455182019728883L5.67 2.104441731196186M5.67 2.104441731196186L5.467499999999999 1.753701442663488M5.467499999999999 1.753701442663488L5.8725 1.753701442663488M5.8725 1.9875283016852865L6.074999999999999 2.104441731196186M5.8725 1.9875283016852865L5.67 2.104441731196186M5.8725 2.689008878750682L5.8725 2.455182019728883M5.8725 2.455182019728883L6.2775 2.455182019728883M6.2775 2.455182019728883L6.074999999999999 2.805922308261581M6.074999999999999 2.805922308261581L5.8725 3.1566625967942787M5.8725 3.1566625967942787L5.67 2.805922308261581M5.67 2.805922308261581L5.467499999999999 2.455182019728883M5.467499999999999 2.455182019728883L5.8725 2.455182019728883M5.8725 2.689008878750682L6.074999999999999 2.805922308261581M5.8725 2.689008878750682L5.67 2.805922308261581M5.8725 3.3904894558160765L5.8725 3.1566625967942787M5.8725 3.1566625967942787L6.2775 3.1566625967942783M6.2775 3.1566625967942783L6.074999999999999 3.507402885326976M6.074999999999999 3.507402885326976L5.8725 3.858143173859674M5.8725 3.858143173859674L5.67 3.507402885326976M5.67 3.507402885326976L5.467499999999999 3.1566625967942783M5.467499999999999 3.1566625967942783L5.8725 3.1566625967942787M5.8725 3.3904894558160765L6.074999999999999 3.507402885326976M5.8725 3.3904894558160765L5.67 3.507402885326976M5.8725 4.0919700328814725L5.8725 3.858143173859674M5.8725 3.858143173859674L6.2775 3.858143173859674M5.467499999999999 3.858143173859674L5.8725 3.858143173859674M5.8725 4.0919700328814725L6.074999999999999 4.208883462392372M5.8725 4.0919700328814725L5.67 4.208883462392372M6.4799999999999995 0.23382685902179845L6.4799999999999995 0M6.682499999999999 0.3507402885326976L6.4799999999999995 0.7014805770653952M6.4799999999999995 0.7014805770653952L6.2775 0.3507402885326976M6.4799999999999995 0.23382685902179845L6.682499999999999 0.3507402885326976M6.4799999999999995 0.23382685902179845L6.2775 0.3507402885326976M6.4799999999999995 0.9353074360871936L6.4799999999999995 0.7014805770653952M6.4799999999999995 0.7014805770653952L6.885 0.7014805770653952M6.885 0.7014805770653952L6.682499999999999 1.052220865598093M6.682499999999999 1.052220865598093L6.4799999999999995 1.4029611541307905M6.4799999999999995 1.4029611541307905L6.2775 1.052220865598093M6.2775 1.052220865598093L6.074999999999999 0.7014805770653952M6.074999999999999 0.7014805770653952L6.4799999999999995 0.7014805770653952M6.4799999999999995 0.9353074360871936L6.682499999999999 1.052220865598093M6.4799999999999995 0.9353074360871936L6.2775 1.052220865598093M6.4799999999999995 1.636788013152589L6.4799999999999995 1.4029611541307905M6.4799999999999995 1.4029611541307905L6.885 1.4029611541307905M6.885 1.4029611541307905L6.682499999999999 1.753701442663488M6.682499999999999 1.753701442663488L6.4799999999999995 2.104441731196186M6.4799999999999995 2.104441731196186L6.2775 1.753701442663488M6.2775 1.753701442663488L6.074999999999999 1.4029611541307905M6.074999999999999 1.4029611541307905L6.4799999999999995 1.4029611541307905M6.4799999999999995 1.636788013152589L6.682499999999999 1.753701442663488M6.4799999999999995 1.636788013152589L6.2775 1.753701442663488M6.4799999999999995 2.3382685902179845L6.4799999999999995 2.104441731196186M6.4799999999999995 2.104441731196186L6.885 2.104441731196186M6.885 2.104441731196186L6.682499999999999 2.455182019728883M6.682499999999999 2.455182019728883L6.4799999999999995 2.805922308261581M6.4799999999999995 2.805922308261581L6.2775 2.455182019728883M6.2775 2.455182019728883L6.074999999999999 2.104441731196186M6.074999999999999 2.104441731196186L6.4799999999999995 2.104441731196186M6.4799999999999995 2.3382685902179845L6.682499999999999 2.455182019728883M6.4799999999999995 2.3382685902179845L6.2775 2.455182019728883M6.4799999999999995 3.0397491672833796L6.4799999999999995 2.805922308261581M6.4799999999999995 2.805922308261581L6.885 2.805922308261581M6.885 2.805922308261581L6.682499999999999 3.1566625967942783M6.682499999999999 3.1566625967942783L6.4799999999999995 3.507402885326976M6.4799999999999995 3.507402885326976L6.2775 3.1566625967942783M6.2775 3.1566625967942783L6.074999999999999 2.805922308261581M6.074999999999999 2.805922308261581L6.4799999999999995 2.805922308261581M6.4799999999999995 3.0397491672833796L6.682499999999999 3.1566625967942783M6.4799999999999995 3.0397491672833796L6.2775 3.1566625967942783M6.4799999999999995 3.7412297443487743L6.4799999999999995 3.507402885326976M6.4799999999999995 3.507402885326976L6.885 3.507402885326976M6.885 3.507402885326976L6.682499999999999 3.858143173859674M6.2775 3.858143173859674L6.074999999999999 3.507402885326976M6.074999999999999 3.507402885326976L6.4799999999999995 3.507402885326976M6.4799999999999995 3.7412297443487743L6.682499999999999 3.858143173859674M6.4799999999999995 3.7412297443487743L6.2775 3.858143173859674M7.0874999999999995 0.5845671475544961L7.0874999999999995 0.3507402885326976M7.0874999999999995 1.052220865598093L6.885 0.7014805770653952M6.885 0.7014805770653952L6.682499999999999 0.3507402885326976M7.0874999999999995 0.5845671475544961L7.289999999999999 0.7014805770653952M7.0874999999999995 0.5845671475544961L6.885 0.7014805770653952M7.0874999999999995 1.2860477246198914L7.0874999999999995 1.052220865598093M7.0874999999999995 1.753701442663488L6.885 1.4029611541307905M6.885 1.4029611541307905L6.682499999999999 1.052220865598093M6.682499999999999 1.052220865598093L7.0874999999999995 1.052220865598093M7.0874999999999995 1.2860477246198914L7.289999999999999 1.4029611541307905M7.0874999999999995 1.2860477246198914L6.885 1.4029611541307905M7.0874999999999995 1.9875283016852865L7.0874999999999995 1.753701442663488M7.0874999999999995 2.455182019728883L6.885 2.104441731196186M6.885 2.104441731196186L6.682499999999999 1.753701442663488M6.682499999999999 1.753701442663488L7.0874999999999995 1.753701442663488M7.0874999999999995 1.9875283016852865L7.289999999999999 2.1044417311961854M7.0874999999999995 1.9875283016852865L6.885 2.104441731196186M7.0874999999999995 2.689008878750682L7.0874999999999995 2.455182019728883M7.0874999999999995 3.1566625967942787L6.885 2.805922308261581M6.885 2.805922308261581L6.682499999999999 2.455182019728883M6.682499999999999 2.455182019728883L7.0874999999999995 2.455182019728883M7.0874999999999995 2.689008878750682L7.289999999999999 2.805922308261581M7.0874999999999995 2.689008878750682L6.885 2.805922308261581M7.0874999999999995 3.3904894558160765L7.0874999999999995 3.1566625967942787M7.0874999999999995 3.858143173859674L6.885 3.507402885326976M6.885 3.507402885326976L6.682499999999999 3.1566625967942783M6.682499999999999 3.1566625967942783L7.0874999999999995 3.1566625967942787M7.0874999999999995 3.3904894558160765L7.289999999999999 3.507402885326976M7.0874999999999995 3.3904894558160765L6.885 3.507402885326976M7.0874999999999995 4.0919700328814725L7.0874999999999995 3.858143173859674M6.682499999999999 3.858143173859674L7.0874999999999995 3.858143173859674M7.0874999999999995 4.0919700328814725L7.289999999999999 4.208883462392372M7.0874999999999995 4.0919700328814725L6.885 4.208883462392372" class="mountain" stroke="red"></path><path d="M0.40499999999999997 0L0.8099999999999999 0M0.8099999999999999 0L0.6074999999999999 0.3507402885326976M0.40499999999999997 0.7014805770653952L0.20249999999999999 0.3507402885326976M0.20249999999999999 0.3507402885326976L0 0M0 0L0.40499999999999997 0M0.40499999999999997 1.4029611541307905L0.20249999999999999 1.052220865598093M0.20249999999999999 1.052220865598093L0 0.7014805770653952M0 0.7014805770653952L0.40499999999999997 0.7014805770653952M0.40499999999999997 2.104441731196186L0.20249999999999999 1.753701442663488M0.20249999999999999 1.753701442663488L0 1.4029611541307905M0 1.4029611541307905L0.40499999999999997 1.4029611541307905M0.40499999999999997 2.805922308261581L0.20249999999999999 2.455182019728883M0.20249999999999999 2.455182019728883L0 2.104441731196186M0 2.104441731196186L0.40499999999999997 2.104441731196186M0.40499999999999997 3.507402885326976L0.20249999999999999 3.1566625967942783M0.20249999999999999 3.1566625967942783L0 2.805922308261581M0 2.805922308261581L0.40499999999999997 2.805922308261581M0.6074999999999999 3.858143173859674L0.40499999999999997 4.208883462392371M0.40499999999999997 4.208883462392371L0.20249999999999999 3.858143173859674M0.20249999999999999 3.858143173859674L0 3.507402885326976M0 3.507402885326976L0.40499999999999997 3.507402885326976M1.0125 0.3507402885326976L1.4175 0.3507402885326976M0.6074999999999999 0.3507402885326976L1.0125 0.3507402885326976M1.4175 3.858143173859674L1.2149999999999999 4.208883462392372M1.2149999999999999 4.208883462392372L1.0125 4.559623750925069M1.0125 4.559623750925069L0.8099999999999999 4.208883462392372M0.8099999999999999 4.208883462392372L0.6074999999999999 3.858143173859674M1.6199999999999999 0L2.025 0M2.025 0L1.8224999999999998 0.3507402885326976M1.4175 0.3507402885326976L1.2149999999999999 0M1.2149999999999999 0L1.6199999999999999 0M1.8224999999999998 3.858143173859674L1.6199999999999999 4.208883462392371M1.6199999999999999 4.208883462392371L1.4175 3.858143173859674M2.2275 0.3507402885326976L2.6325 0.3507402885326976M1.8224999999999998 0.3507402885326976L2.2275 0.3507402885326976M2.6325 3.858143173859674L2.4299999999999997 4.208883462392372M2.4299999999999997 4.208883462392372L2.2275 4.559623750925069M2.2275 4.559623750925069L2.025 4.208883462392372M2.025 4.208883462392372L1.8224999999999998 3.858143173859674M2.835 0L3.2399999999999998 0M3.2399999999999998 0L3.0374999999999996 0.3507402885326976M2.6325 0.3507402885326976L2.4299999999999997 0M2.4299999999999997 0L2.835 0M3.0374999999999996 3.858143173859674L2.835 4.208883462392371M2.835 4.208883462392371L2.6325 3.858143173859674M3.4425 0.3507402885326976L3.8474999999999997 0.3507402885326976M3.0374999999999996 0.3507402885326976L3.4425 0.3507402885326976M3.8474999999999997 3.858143173859674L3.6449999999999996 4.208883462392372M3.6449999999999996 4.208883462392372L3.4425 4.559623750925069M3.4425 4.559623750925069L3.2399999999999998 4.208883462392372M3.2399999999999998 4.208883462392372L3.0374999999999996 3.858143173859674M4.05 0L4.455 0M4.455 0L4.2524999999999995 0.3507402885326976M3.8474999999999997 0.3507402885326976L3.6449999999999996 0M3.6449999999999996 0L4.05 0M4.2524999999999995 3.858143173859674L4.05 4.208883462392371M4.05 4.208883462392371L3.8474999999999997 3.858143173859674M4.6575 0.3507402885326976L5.0625 0.3507402885326976M4.2524999999999995 0.3507402885326976L4.6575 0.3507402885326976M5.0625 3.858143173859674L4.859999999999999 4.208883462392372M4.859999999999999 4.208883462392372L4.6575 4.559623750925069M4.6575 4.559623750925069L4.455 4.208883462392372M4.455 4.208883462392372L4.2524999999999995 3.858143173859674M5.265 0L5.67 0M5.67 0L5.467499999999999 0.3507402885326976M5.0625 0.3507402885326976L4.859999999999999 0M4.859999999999999 0L5.265 0M5.467499999999999 3.858143173859674L5.265 4.208883462392371M5.265 4.208883462392371L5.0625 3.858143173859674M5.8725 0.3507402885326976L6.2775 0.3507402885326976M5.467499999999999 0.3507402885326976L5.8725 0.3507402885326976M6.2775 3.858143173859674L6.074999999999999 4.208883462392372M6.074999999999999 4.208883462392372L5.8725 4.559623750925069M5.8725 4.559623750925069L5.67 4.208883462392372M5.67 4.208883462392372L5.467499999999999 3.858143173859674M6.4799999999999995 0L6.885 0M6.885 0L6.682499999999999 0.3507402885326976M6.2775 0.3507402885326976L6.074999999999999 0M6.074999999999999 0L6.4799999999999995 0M6.682499999999999 3.858143173859674L6.4799999999999995 4.208883462392371M6.4799999999999995 4.208883462392371L6.2775 3.858143173859674M7.0874999999999995 0.3507402885326976L7.4925 0.3507402885326976M7.4925 0.3507402885326976L7.289999999999999 0.7014805770653952M7.289999999999999 0.7014805770653952L7.0874999999999995 1.052220865598093M6.682499999999999 0.3507402885326976L7.0874999999999995 0.3507402885326976M7.0874999999999995 1.052220865598093L7.4925 1.052220865598093M7.4925 1.052220865598093L7.289999999999999 1.4029611541307905M7.289999999999999 1.4029611541307905L7.0874999999999995 1.753701442663488M7.0874999999999995 1.753701442663488L7.4925 1.753701442663488M7.4925 1.753701442663488L7.289999999999999 2.1044417311961854M7.289999999999999 2.1044417311961854L7.0874999999999995 2.455182019728883M7.0874999999999995 2.455182019728883L7.4925 2.455182019728883M7.4925 2.455182019728883L7.289999999999999 2.805922308261581M7.289999999999999 2.805922308261581L7.0874999999999995 3.1566625967942787M7.0874999999999995 3.1566625967942787L7.4925 3.1566625967942783M7.4925 3.1566625967942783L7.289999999999999 3.507402885326976M7.289999999999999 3.507402885326976L7.0874999999999995 3.858143173859674M7.0874999999999995 3.858143173859674L7.4925 3.858143173859674M7.4925 3.858143173859674L7.289999999999999 4.208883462392372M7.289999999999999 4.208883462392372L7.0874999999999995 4.559623750925069M7.0874999999999995 4.559623750925069L6.885 4.208883462392372M6.885 4.208883462392372L6.682499999999999 3.858143173859674" class="boundary"></path></g></svg>
